<svg width="65" height="50" viewBox="0 0 65 50" fill="none" xmlns="http://www.w3.org/2000/svg">
<path d="M26.8746 9.95673C26.7187 10.5452 26.7359 11.1528 26.925 11.7355C27.114 12.3181 27.4702 12.8613 27.9676 13.3255C28.4524 13.756 28.7341 14.2988 28.7676 14.8667V15.003C28.7675 15.1305 28.8091 15.2561 28.8886 15.3682L29.7696 16.6131V17.9506C29.7696 18.5598 30.0856 19.144 30.6482 19.5748C31.2108 20.0055 31.9739 20.2475 32.7696 20.2475C33.5652 20.2475 34.3283 20.0055 34.8909 19.5748C35.4535 19.144 35.7696 18.5598 35.7696 17.9506V16.6131L36.6486 15.3712C36.7276 15.259 36.7692 15.1335 36.7696 15.006V14.8667C36.7948 14.3105 37.0679 13.7777 37.5436 13.3569C38.3352 12.6292 38.769 11.7123 38.7696 10.7652C38.764 10.146 38.5793 9.53542 38.2286 8.97741C37.878 8.4194 37.3701 7.92785 36.7416 7.53812C36.0174 7.0901 35.173 6.76997 34.2686 6.60057C33.3642 6.43117 32.4221 6.41667 31.5096 6.55812C30.3859 6.71248 29.3467 7.11731 28.5222 7.72188C27.6976 8.32645 27.1245 9.10387 26.8746 9.95673ZM33.7696 17.9506C33.7696 18.1537 33.6642 18.3484 33.4767 18.492C33.2891 18.6356 33.0348 18.7162 32.7696 18.7162C32.5043 18.7162 32.25 18.6356 32.0625 18.492C31.8749 18.3484 31.7696 18.1537 31.7696 17.9506V17.185H33.7696V17.9506ZM35.4696 8.72254C35.8696 8.96853 36.1937 9.27923 36.4184 9.63239C36.6432 9.98555 36.7631 10.3724 36.7696 10.7652C36.766 11.3577 36.4927 11.9306 35.9966 12.3853C35.238 13.0632 34.8051 13.9193 34.7696 14.8116L34.1696 15.6537H31.3696L30.7696 14.8116C30.7239 13.914 30.2866 13.0541 29.5276 12.3692C29.2143 12.0782 28.9898 11.7374 28.8702 11.3716C28.7507 11.0058 28.7392 10.6242 28.8366 10.2546C29.0076 9.70021 29.3883 9.19674 29.9309 8.80703C30.4735 8.41733 31.1541 8.15866 31.8876 8.06334C32.5111 7.96318 33.156 7.97036 33.7754 8.08437C34.3949 8.19837 34.9736 8.41635 35.4696 8.72254ZM31.7696 1.8725H33.7696V4.935H31.7696V1.8725ZM43.7696 12.5912H47.7696V14.1225H43.7696V12.5912ZM17.7696 12.5912H21.7696V14.1225H17.7696V12.5912ZM39.8406 6.85978L42.6696 4.69459L44.0836 5.77718L41.2556 7.9439L39.8406 6.85978ZM21.4556 5.77718L22.8706 4.69459L25.6986 6.85978L24.2846 7.94314L21.4556 5.77718ZM61.7696 40.1537H53.7696C53.5043 40.1537 53.25 40.2344 53.0625 40.378C52.8749 40.5216 52.7696 40.7163 52.7696 40.9194V47.0444C52.7696 47.2474 52.8749 47.4422 53.0625 47.5858C53.25 47.7293 53.5043 47.81 53.7696 47.81H61.7696C62.0348 47.81 62.2891 47.7293 62.4767 47.5858C62.6642 47.4422 62.7696 47.2474 62.7696 47.0444V40.9194C62.7696 40.7163 62.6642 40.5216 62.4767 40.378C62.2891 40.2344 62.0348 40.1537 61.7696 40.1537ZM60.7696 46.2787H54.7696V41.685H60.7696V46.2787ZM36.7696 40.1537H28.7696C28.5043 40.1537 28.25 40.2344 28.0625 40.378C27.8749 40.5216 27.7696 40.7163 27.7696 40.9194V47.0444C27.7696 47.2474 27.8749 47.4422 28.0625 47.5858C28.25 47.7293 28.5043 47.81 28.7696 47.81H36.7696C37.0348 47.81 37.2891 47.7293 37.4767 47.5858C37.6642 47.4422 37.7696 47.2474 37.7696 47.0444V40.9194C37.7696 40.7163 37.6642 40.5216 37.4767 40.378C37.2891 40.2344 37.0348 40.1537 36.7696 40.1537ZM35.7696 46.2787H29.7696V41.685H35.7696V46.2787ZM11.7696 40.1537H3.76956C3.50435 40.1537 3.24999 40.2344 3.06245 40.378C2.87492 40.5216 2.76956 40.7163 2.76956 40.9194V47.0444C2.76956 47.2474 2.87492 47.4422 3.06245 47.5858C3.24999 47.7293 3.50435 47.81 3.76956 47.81H11.7696C12.0348 47.81 12.2891 47.7293 12.4767 47.5858C12.6642 47.4422 12.7696 47.2474 12.7696 47.0444V40.9194C12.7696 40.7163 12.6642 40.5216 12.4767 40.378C12.2891 40.2344 12.0348 40.1537 11.7696 40.1537ZM10.7696 46.2787H4.76956V41.685H10.7696V46.2787ZM25.1936 26.3725H22.7696C21.9739 26.3725 21.2108 26.6145 20.6482 27.0452C20.0856 27.476 19.7696 28.0602 19.7696 28.6694V36.3256C19.7696 36.5287 19.8749 36.7234 20.0625 36.867C20.25 37.0106 20.5043 37.0912 20.7696 37.0912H44.7696C45.0348 37.0912 45.2891 37.0106 45.4767 36.867C45.6642 36.7234 45.7696 36.5287 45.7696 36.3256V28.6694C45.7696 28.0602 45.4535 27.476 44.8909 27.0452C44.3283 26.6145 43.5652 26.3725 42.7696 26.3725H40.3456C39.1876 25.849 37.8571 25.5923 36.5134 25.633C35.1697 25.6738 33.8698 26.0103 32.7696 26.6022C31.6693 26.0102 30.3695 25.6736 29.0258 25.6329C27.682 25.5921 26.3515 25.8489 25.1936 26.3725ZM23.7696 35.56H21.7696V28.6694C21.7696 28.4663 21.8749 28.2716 22.0625 28.128C22.25 27.9844 22.5043 27.9037 22.7696 27.9037H23.7696V35.56ZM41.7696 27.9037H42.7696C43.0348 27.9037 43.2891 27.9844 43.4767 28.128C43.6642 28.2716 43.7696 28.4663 43.7696 28.6694V35.56H41.7696V27.9037ZM34.4866 35.56C35.1922 35.2804 35.9751 35.1345 36.7696 35.1345C37.5641 35.1345 38.347 35.2804 39.0526 35.56H34.4866ZM33.7696 27.9175C34.6283 27.4084 35.6835 27.1322 36.7696 27.1322C37.8556 27.1322 38.9109 27.4084 39.7696 27.9175V34.1191C38.8299 33.7844 37.806 33.6109 36.7696 33.6109C35.7331 33.6109 34.7093 33.7844 33.7696 34.1191V27.9175ZM26.4866 35.56C27.1922 35.2804 27.9751 35.1345 28.7696 35.1345C29.5641 35.1345 30.347 35.2804 31.0526 35.56H26.4866ZM31.7696 34.1176C30.8299 33.7828 29.806 33.6094 28.7696 33.6094C27.7331 33.6094 26.7093 33.7828 25.7696 34.1176V27.916C26.6283 27.4069 27.6835 27.1307 28.7696 27.1307C29.8556 27.1307 30.9109 27.4069 31.7696 27.916V34.1176ZM57.7696 21.0131C56.7807 21.0131 55.814 21.2376 54.9917 21.6583C54.1695 22.0789 53.5286 22.6768 53.1502 23.3763C52.7717 24.0758 52.6727 24.8455 52.8656 25.5881C53.0586 26.3307 53.5348 27.0128 54.234 27.5481C54.9333 28.0835 55.8242 28.4481 56.7941 28.5958C57.764 28.7435 58.7693 28.6677 59.683 28.378C60.5966 28.0882 61.3775 27.5976 61.9269 26.968C62.4763 26.3385 62.7696 25.5984 62.7696 24.8412C62.768 23.8263 62.2407 22.8533 61.3033 22.1357C60.366 21.418 59.0952 21.0143 57.7696 21.0131ZM57.7696 27.1381C57.1762 27.1381 56.5962 27.0034 56.1029 26.751C55.6095 26.4986 55.225 26.1399 54.9979 25.7202C54.7709 25.3005 54.7114 24.8387 54.8272 24.3931C54.943 23.9476 55.2287 23.5383 55.6482 23.2171C56.0678 22.8959 56.6023 22.6771 57.1843 22.5885C57.7662 22.4999 58.3694 22.5454 58.9176 22.7192C59.4658 22.8931 59.9343 23.1875 60.264 23.5652C60.5936 23.9429 60.7696 24.387 60.7696 24.8412C60.7696 25.4504 60.4535 26.0346 59.8909 26.4654C59.3283 26.8961 58.5652 27.1381 57.7696 27.1381ZM2.76956 24.8412C2.76956 25.5984 3.06281 26.3385 3.61221 26.968C4.16162 27.5976 4.94251 28.0882 5.85614 28.378C6.76977 28.6677 7.77511 28.7435 8.74501 28.5958C9.71492 28.4481 10.6058 28.0835 11.3051 27.5481C12.0044 27.0128 12.4806 26.3307 12.6735 25.5881C12.8664 24.8455 12.7674 24.0758 12.389 23.3763C12.0105 22.6768 11.3697 22.0789 10.5474 21.6583C9.72517 21.2376 8.75847 21.0131 7.76956 21.0131C6.44397 21.0143 5.17312 21.418 4.23578 22.1357C3.29844 22.8533 2.77115 23.8263 2.76956 24.8412ZM7.76956 22.5444C8.36291 22.5444 8.94292 22.6791 9.43627 22.9315C9.92962 23.1838 10.3141 23.5426 10.5412 23.9623C10.7683 24.382 10.8277 24.8438 10.7119 25.2893C10.5962 25.7349 10.3104 26.1442 9.89088 26.4654C9.47132 26.7866 8.93678 27.0054 8.35483 27.094C7.77289 27.1826 7.16969 27.1371 6.62151 26.9633C6.07333 26.7894 5.6048 26.495 5.27515 26.1173C4.94551 25.7396 4.76956 25.2955 4.76956 24.8412C4.76956 24.2321 5.08563 23.6479 5.64824 23.2171C6.21085 22.7864 6.97391 22.5444 7.76956 22.5444ZM37.7696 17.185H56.7696V19.4819H58.7696V16.4194C58.7696 16.2163 58.6642 16.0216 58.4767 15.878C58.2891 15.7344 58.0348 15.6537 57.7696 15.6537H37.7696V17.185ZM6.76956 16.4194V19.4819H8.76956V17.185H27.7696V15.6537H7.76956C7.50435 15.6537 7.24999 15.7344 7.06246 15.878C6.87492 16.0216 6.76956 16.2163 6.76956 16.4194ZM58.7696 38.6225V32.4975C58.7696 32.2944 58.6642 32.0997 58.4767 31.9561C58.2891 31.8125 58.0348 31.7319 57.7696 31.7319H47.7696V33.2631H56.7696V38.6225H58.7696ZM6.76956 32.4975V38.6225H8.76956V33.2631H17.7696V31.7319H7.76956C7.50435 31.7319 7.24999 31.8125 7.06246 31.9561C6.87492 32.0997 6.76956 32.2944 6.76956 32.4975ZM31.7696 21.7787H33.7696V24.8412H31.7696V21.7787ZM14.7696 43.2162H24.7696V44.7475H14.7696V43.2162ZM40.7696 43.2162H50.7696V44.7475H40.7696V43.2162Z" fill="black"/>
</svg>
