<svg width="65" height="65" viewBox="0 0 65 65" fill="none" xmlns="http://www.w3.org/2000/svg">
<g clip-path="url(#clip0_2_2002)">
<path d="M59.6715 5.01126H5.37153C2.70153 5.01126 0.52153 7.19126 0.52153 9.87126V55.9513C0.52153 58.6313 2.70153 60.8113 5.37153 60.8113H59.6715C62.3415 60.8113 64.5215 58.6313 64.5215 55.9513V9.87126C64.5215 7.19126 62.3415 5.01126 59.6715 5.01126ZM63.0515 55.9513C63.0515 57.8213 61.5315 59.3413 59.6715 59.3413H5.37153C3.51153 59.3413 1.99153 57.8213 1.99153 55.9513V20.2013H63.0515V55.9513ZM63.0515 18.7413H1.99153V9.87126C1.99153 8.00126 3.51153 6.48126 5.37153 6.48126H59.6715C61.5315 6.48126 63.0515 8.00126 63.0515 9.87126V18.7413Z" fill="black"/>
<path d="M59.6715 6.48126H5.37153C3.51153 6.48126 1.99153 8.00126 1.99153 9.87126V18.7413H63.0515V9.87126C63.0515 8.00126 61.5315 6.48126 59.6715 6.48126ZM31.0215 15.6513H9.12153C7.44153 15.6513 6.08153 14.2913 6.08153 12.6113C6.08153 10.9313 7.44153 9.57126 9.12153 9.57126H31.0215C32.7015 9.57126 34.0715 10.9313 34.0715 12.6113C34.0715 14.2913 32.7015 15.6513 31.0215 15.6513ZM46.8915 16.0113C45.0215 16.0113 43.4915 14.4813 43.4915 12.6113C43.4915 10.7313 45.0215 9.21126 46.8915 9.21126C48.7715 9.21126 50.2915 10.7313 50.2915 12.6113C50.2915 14.4813 48.7715 16.0113 46.8915 16.0113ZM54.4515 16.0113C52.5815 16.0113 51.0515 14.4813 51.0515 12.6113C51.0515 10.7313 52.5815 9.21126 54.4515 9.21126C56.3315 9.21126 57.8515 10.7313 57.8515 12.6113C57.8515 14.4813 56.3315 16.0113 54.4515 16.0113Z" fill="#EA526C"/>
<path d="M1.99153 20.2013V55.9513C1.99153 57.8213 3.51153 59.3413 5.37153 59.3413H59.6715C61.5315 59.3413 63.0515 57.8213 63.0515 55.9513V20.2013H1.99153ZM4.10153 24.3013C4.10153 23.4013 4.83153 22.6713 5.73153 22.6713H16.5415C17.4415 22.6713 18.1815 23.4013 18.1815 24.3013V26.7913H21.4815L20.5315 25.7813C20.2515 25.4913 20.2615 25.0213 20.5615 24.7413C20.8515 24.4613 21.3215 24.4813 21.5915 24.7713L23.7215 27.0213C23.7715 27.0813 23.8115 27.1513 23.8515 27.2213C23.8615 27.2413 23.8615 27.2613 23.8715 27.2713C23.8915 27.3413 23.9015 27.4013 23.9115 27.4613V27.5413C23.9115 27.6113 23.9015 27.6713 23.8815 27.7313C23.8715 27.7513 23.8715 27.7713 23.8615 27.7913C23.8615 27.8013 23.8615 27.8113 23.8615 27.8113C23.8215 27.8913 23.7815 27.9613 23.7215 28.0113C23.7215 28.0213 23.7215 28.0213 23.7215 28.0313L21.5915 30.2813C21.4515 30.4313 21.2615 30.5113 21.0615 30.5113C20.8815 30.5113 20.7015 30.4413 20.5615 30.3113C20.2615 30.0313 20.2515 29.5613 20.5315 29.2713L21.4915 28.2613H18.1815V30.7513C18.1815 31.6513 17.4415 32.3813 16.5415 32.3813H5.73153C4.83153 32.3813 4.10153 31.6513 4.10153 30.7513V24.3013ZM22.2115 52.2813C22.2015 52.3213 22.1715 52.3513 22.1415 52.3813C22.1215 52.4313 22.1015 52.4713 22.0715 52.5113L19.6715 55.0613C19.5215 55.2113 19.3315 55.2913 19.1315 55.2913C18.9515 55.2913 18.7715 55.2213 18.6315 55.0913C18.3315 54.8113 18.3215 54.3513 18.6015 54.0513L19.8415 52.7413H11.4215C7.64153 52.7413 4.57153 49.6613 4.57153 45.8913C4.57153 42.1113 7.64153 39.0413 11.4215 39.0413H25.3215V36.5513C25.3215 35.6513 26.0515 34.9213 26.9615 34.9213H37.7615C38.6715 34.9213 39.4015 35.6513 39.4015 36.5513V43.0013C39.4015 43.9013 38.6715 44.6313 37.7615 44.6313H26.9615C26.0515 44.6313 25.3215 43.9013 25.3215 43.0013V40.5113H11.4215C8.45153 40.5113 6.04153 42.9213 6.04153 45.8913C6.04153 48.8613 8.45153 51.2713 11.4215 51.2713H19.8415L18.6015 49.9613C18.3215 49.6613 18.3315 49.2013 18.6315 48.9213C18.9215 48.6413 19.3915 48.6613 19.6715 48.9513L22.0715 51.5013C22.1015 51.5413 22.1215 51.5813 22.1415 51.6213C22.1715 51.6613 22.2015 51.6913 22.2115 51.7313C22.2815 51.9013 22.2815 52.1013 22.2115 52.2813ZM45.1315 52.0413C45.1315 52.1013 45.1215 52.1713 45.1015 52.2313C45.1015 52.2513 45.0915 52.2713 45.0815 52.2913C45.0815 52.3013 45.0815 52.3113 45.0815 52.3113C45.0515 52.3913 45.0015 52.4513 44.9515 52.5113C44.9415 52.5213 44.9415 52.5213 44.9415 52.5313L42.8215 54.7713C42.6715 54.9313 42.4815 55.0013 42.2815 55.0013C42.1015 55.0013 41.9215 54.9413 41.7815 54.8013C41.4915 54.5313 41.4715 54.0613 41.7515 53.7713L42.7115 52.7613H39.4015V55.2413C39.4015 56.1513 38.6715 56.8813 37.7615 56.8813H26.9615C26.0515 56.8813 25.3215 56.1513 25.3215 55.2413V48.8013C25.3215 47.9013 26.0515 47.1713 26.9615 47.1713H37.7615C38.6715 47.1713 39.4015 47.9013 39.4015 48.8013V51.2913H42.7115L41.7515 50.2813C41.4715 49.9813 41.4915 49.5213 41.7815 49.2413C42.0815 48.9613 42.5415 48.9813 42.8215 49.2713L44.9415 51.5213C44.9915 51.5813 45.0415 51.6413 45.0715 51.7213C45.0815 51.7313 45.0815 51.7513 45.0915 51.7713C45.1115 51.8313 45.1215 51.9013 45.1315 51.9613V52.0413ZM46.0915 42.8413C45.9515 42.9713 45.7715 43.0413 45.5915 43.0413C45.3915 43.0413 45.2015 42.9613 45.0515 42.8113L42.6515 40.2613C42.6215 40.2213 42.6015 40.1813 42.5815 40.1413C42.5515 40.1013 42.5215 40.0713 42.5115 40.0313C42.4415 39.8513 42.4415 39.6613 42.5115 39.4813C42.5215 39.4413 42.5515 39.4113 42.5815 39.3713C42.6015 39.3313 42.6215 39.2913 42.6515 39.2513L45.0515 36.7013C45.3315 36.4113 45.8015 36.3913 46.0915 36.6713C46.3815 36.9513 46.4015 37.4113 46.1215 37.7113L44.8815 39.0213H53.3015C56.2715 39.0213 58.6815 36.6113 58.6815 33.6413C58.6815 30.6713 56.2715 28.2613 53.3015 28.2613H39.4015V30.7513C39.4015 31.6513 38.6715 32.3813 37.7615 32.3813H26.9615C26.0515 32.3813 25.3215 31.6513 25.3215 30.7513V24.3013C25.3215 23.4013 26.0515 22.6713 26.9615 22.6713H37.7615C38.6715 22.6713 39.4015 23.4013 39.4015 24.3013V26.7913H53.3015C57.0815 26.7913 60.1515 29.8613 60.1515 33.6413C60.1515 37.4213 57.0815 40.4913 53.3015 40.4913H44.8815L46.1215 41.8013C46.4015 42.1013 46.3815 42.5613 46.0915 42.8413ZM60.9415 55.2413C60.9415 56.1513 60.2115 56.8813 59.3115 56.8813H48.5015C47.6015 56.8813 46.8615 56.1513 46.8615 55.2413V48.8013C46.8615 47.9013 47.6015 47.1713 48.5015 47.1713H59.3115C60.2115 47.1713 60.9415 47.9013 60.9415 48.8013V55.2413Z" fill="#E1E9FF"/>
<path d="M60.4315 20.2013C57.9915 22.4313 55.5515 24.6313 53.0815 26.7913H53.3015C57.0815 26.7913 60.1515 29.8613 60.1515 33.6413C60.1515 37.4213 57.0815 40.4913 53.3015 40.4913H44.8815L46.1215 41.8013C46.4015 42.1013 46.3815 42.5613 46.0915 42.8413C45.9515 42.9713 45.7715 43.0413 45.5915 43.0413C45.3915 43.0413 45.2015 42.9613 45.0515 42.8113L42.6515 40.2613C42.6215 40.2213 42.6015 40.1813 42.5815 40.1413C42.5515 40.1013 42.5215 40.0713 42.5115 40.0313C42.4415 39.8513 42.4415 39.6613 42.5115 39.4813C42.5215 39.4413 42.5515 39.4113 42.5815 39.3713C42.6015 39.3313 42.6215 39.2913 42.6515 39.2513L45.0515 36.7013C45.3315 36.4113 45.8015 36.3913 46.0915 36.6713C46.3815 36.9513 46.4015 37.4113 46.1215 37.7113L44.8815 39.0213H53.3015C56.2715 39.0213 58.6815 36.6113 58.6815 33.6413C58.6815 30.6713 56.2715 28.2613 53.3015 28.2613H51.3815C47.4515 31.6413 43.4815 34.8713 39.4015 37.8213V43.0013C39.4015 43.9013 38.6715 44.6313 37.7615 44.6313H28.7815C25.8115 46.2813 22.7915 47.7313 19.6715 48.9513L22.0715 51.5013C22.1015 51.5413 22.1215 51.5813 22.1415 51.6213C22.1715 51.6613 22.2015 51.6913 22.2115 51.7313C22.2815 51.9013 22.2815 52.1013 22.2115 52.2813C22.2015 52.3213 22.1715 52.3513 22.1415 52.3813C22.1215 52.4313 22.1015 52.4713 22.0715 52.5113L19.6715 55.0613C19.5215 55.2113 19.3315 55.2913 19.1315 55.2913C18.9515 55.2913 18.7715 55.2213 18.6315 55.0913C18.3315 54.8113 18.3215 54.3513 18.6015 54.0513L19.8415 52.7413H11.4215C10.4315 52.7413 9.50153 52.5313 8.65153 52.1513C6.48153 52.5613 4.26153 52.8513 1.99153 53.0113V55.9513C1.99153 57.8213 3.51153 59.3413 5.37153 59.3413H59.6715C61.5315 59.3413 63.0515 57.8213 63.0515 55.9513V20.2013H60.4315ZM45.1315 52.0413C45.1315 52.1013 45.1215 52.1713 45.1015 52.2313C45.1015 52.2513 45.0915 52.2713 45.0815 52.2913C45.0815 52.3013 45.0815 52.3113 45.0815 52.3113C45.0515 52.3913 45.0015 52.4513 44.9515 52.5113C44.9415 52.5213 44.9415 52.5213 44.9415 52.5313L42.8215 54.7713C42.6715 54.9313 42.4815 55.0013 42.2815 55.0013C42.1015 55.0013 41.9215 54.9413 41.7815 54.8013C41.4915 54.5313 41.4715 54.0613 41.7515 53.7713L42.7115 52.7613H39.4015V55.2413C39.4015 56.1513 38.6715 56.8813 37.7615 56.8813H26.9615C26.0515 56.8813 25.3215 56.1513 25.3215 55.2413V48.8013C25.3215 47.9013 26.0515 47.1713 26.9615 47.1713H37.7615C38.6715 47.1713 39.4015 47.9013 39.4015 48.8013V51.2913H42.7115L41.7515 50.2813C41.4715 49.9813 41.4915 49.5213 41.7815 49.2413C42.0815 48.9613 42.5415 48.9813 42.8215 49.2713L44.9415 51.5213C44.9915 51.5813 45.0415 51.6413 45.0715 51.7213C45.0815 51.7313 45.0815 51.7513 45.0915 51.7713C45.1115 51.8313 45.1215 51.9013 45.1315 51.9613V52.0413ZM60.9415 55.2413C60.9415 56.1513 60.2115 56.8813 59.3115 56.8813H48.5015C47.6015 56.8813 46.8615 56.1513 46.8615 55.2413V48.8013C46.8615 47.9013 47.6015 47.1713 48.5015 47.1713H59.3115C60.2115 47.1713 60.9415 47.9013 60.9415 48.8013V55.2413Z" fill="#D3DCFB"/>
<path d="M31.0215 9.57126H9.12153C7.44153 9.57126 6.08153 10.9313 6.08153 12.6113C6.08153 14.2913 7.44153 15.6513 9.12153 15.6513H31.0215C32.7015 15.6513 34.0715 14.2913 34.0715 12.6113C34.0715 10.9313 32.7015 9.57126 31.0215 9.57126ZM31.0215 14.1913H9.12153C8.25153 14.1913 7.54153 13.4813 7.54153 12.6113C7.54153 11.7413 8.25153 11.0313 9.12153 11.0313H31.0215C31.8915 11.0313 32.6015 11.7413 32.6015 12.6113C32.6015 13.4813 31.8915 14.1913 31.0215 14.1913Z" fill="black"/>
<path d="M32.6015 12.6112C32.6015 13.4812 31.8915 14.1912 31.0215 14.1912H9.12153C8.25153 14.1912 7.54153 13.4812 7.54153 12.6112C7.54153 11.7412 8.25153 11.0312 9.12153 11.0312H31.0215C31.8915 11.0312 32.6015 11.7412 32.6015 12.6112Z" fill="#E1E9FF"/>
<path d="M46.8915 9.21124C45.0215 9.21124 43.4915 10.7312 43.4915 12.6112C43.4915 14.4812 45.0215 16.0112 46.8915 16.0112C48.7715 16.0112 50.2915 14.4812 50.2915 12.6112C50.2915 10.7312 48.7715 9.21124 46.8915 9.21124ZM46.8915 14.5412C45.8315 14.5412 44.9615 13.6812 44.9615 12.6112C44.9615 11.5412 45.8315 10.6712 46.8915 10.6712C47.9615 10.6712 48.8315 11.5412 48.8315 12.6112C48.8315 13.6812 47.9615 14.5412 46.8915 14.5412Z" fill="black"/>
<path d="M48.8315 12.6113C48.8315 13.6813 47.9615 14.5413 46.8915 14.5413C45.8315 14.5413 44.9615 13.6813 44.9615 12.6113C44.9615 11.5413 45.8315 10.6713 46.8915 10.6713C47.9615 10.6713 48.8315 11.5413 48.8315 12.6113Z" fill="#8A8BC4"/>
<path d="M54.4515 9.21124C52.5815 9.21124 51.0515 10.7312 51.0515 12.6112C51.0515 14.4812 52.5815 16.0112 54.4515 16.0112C56.3315 16.0112 57.8515 14.4812 57.8515 12.6112C57.8515 10.7312 56.3315 9.21124 54.4515 9.21124ZM54.4515 14.5412C53.3815 14.5412 52.5215 13.6812 52.5215 12.6112C52.5215 11.5412 53.3815 10.6712 54.4515 10.6712C55.5215 10.6712 56.3915 11.5412 56.3915 12.6112C56.3915 13.6812 55.5215 14.5412 54.4515 14.5412Z" fill="black"/>
<path d="M56.3915 12.6113C56.3915 13.6813 55.5215 14.5413 54.4515 14.5413C53.3815 14.5413 52.5215 13.6813 52.5215 12.6113C52.5215 11.5413 53.3815 10.6713 54.4515 10.6713C55.5215 10.6713 56.3915 11.5413 56.3915 12.6113Z" fill="#FFC064"/>
<path d="M59.3115 47.1713H48.5015C47.6015 47.1713 46.8615 47.9013 46.8615 48.8013V55.2413C46.8615 56.1513 47.6015 56.8813 48.5015 56.8813H59.3115C60.2115 56.8813 60.9415 56.1513 60.9415 55.2413V48.8013C60.9415 47.9013 60.2115 47.1713 59.3115 47.1713ZM59.4815 55.2413C59.4815 55.3413 59.4015 55.4113 59.3115 55.4113H48.5015C48.4015 55.4113 48.3315 55.3413 48.3315 55.2413V48.8013C48.3315 48.7113 48.4015 48.6313 48.5015 48.6313H59.3115C59.4015 48.6313 59.4815 48.7113 59.4815 48.8013V55.2413Z" fill="black"/>
<path d="M59.4815 48.8013V55.2413C59.4815 55.3413 59.4015 55.4113 59.3115 55.4113H48.5015C48.4015 55.4113 48.3315 55.3413 48.3315 55.2413V48.8013C48.3315 48.7113 48.4015 48.6313 48.5015 48.6313H59.3115C59.4015 48.6313 59.4815 48.7113 59.4815 48.8013Z" fill="#42C3FC"/>
<path d="M23.8715 27.2713C23.8615 27.2613 23.8615 27.2413 23.8515 27.2213C23.8115 27.1513 23.7715 27.0813 23.7215 27.0213L21.5915 24.7713C21.3215 24.4813 20.8515 24.4613 20.5615 24.7413C20.2615 25.0213 20.2515 25.4913 20.5315 25.7813L21.4815 26.7913H18.1815V24.3013C18.1815 23.4013 17.4415 22.6713 16.5415 22.6713H5.73153C4.83153 22.6713 4.10153 23.4013 4.10153 24.3013V30.7513C4.10153 31.6513 4.83153 32.3813 5.73153 32.3813H16.5415C17.4415 32.3813 18.1815 31.6513 18.1815 30.7513V28.2613H21.4915L20.5315 29.2713C20.2515 29.5613 20.2615 30.0313 20.5615 30.3113C20.7015 30.4413 20.8815 30.5113 21.0615 30.5113C21.2615 30.5113 21.4515 30.4313 21.5915 30.2813L23.7215 28.0313C23.7215 28.0213 23.7215 28.0213 23.7215 28.0113C23.7815 27.9613 23.8215 27.8913 23.8615 27.8113C23.8615 27.8113 23.8615 27.8013 23.8615 27.7913C23.8715 27.7713 23.8715 27.7513 23.8815 27.7313C23.9015 27.6713 23.9115 27.6113 23.9115 27.5413V27.4613C23.9015 27.4013 23.8915 27.3413 23.8715 27.2713ZM16.7115 30.7513C16.7115 30.8413 16.6415 30.9113 16.5415 30.9113H5.73153C5.64153 30.9113 5.56153 30.8413 5.56153 30.7513V24.3013C5.56153 24.2113 5.64153 24.1313 5.73153 24.1313H16.5415C16.6415 24.1313 16.7115 24.2113 16.7115 24.3013V30.7513Z" fill="black"/>
<path d="M16.7115 24.3013V30.7513C16.7115 30.8413 16.6415 30.9113 16.5415 30.9113H5.73152C5.64152 30.9113 5.56152 30.8413 5.56152 30.7513V24.3013C5.56152 24.2113 5.64152 24.1313 5.73152 24.1313H16.5415C16.6415 24.1313 16.7115 24.2113 16.7115 24.3013Z" fill="#42C3FC"/>
<path d="M53.3015 26.7913H39.4015V24.3013C39.4015 23.4013 38.6715 22.6713 37.7615 22.6713H26.9615C26.0515 22.6713 25.3215 23.4013 25.3215 24.3013V30.7513C25.3215 31.6513 26.0515 32.3813 26.9615 32.3813H37.7615C38.6715 32.3813 39.4015 31.6513 39.4015 30.7513V28.2613H53.3015C56.2715 28.2613 58.6815 30.6713 58.6815 33.6413C58.6815 36.6113 56.2715 39.0213 53.3015 39.0213H44.8815L46.1215 37.7113C46.4015 37.4113 46.3815 36.9513 46.0915 36.6713C45.8015 36.3913 45.3315 36.4113 45.0515 36.7013L42.6515 39.2513C42.6215 39.2913 42.6015 39.3313 42.5815 39.3713C42.5515 39.4113 42.5215 39.4413 42.5115 39.4813C42.4415 39.6613 42.4415 39.8513 42.5115 40.0313C42.5215 40.0713 42.5515 40.1013 42.5815 40.1413C42.6015 40.1813 42.6215 40.2213 42.6515 40.2613L45.0515 42.8113C45.2015 42.9613 45.3915 43.0413 45.5915 43.0413C45.7715 43.0413 45.9515 42.9713 46.0915 42.8413C46.3815 42.5613 46.4015 42.1013 46.1215 41.8013L44.8815 40.4913H53.3015C57.0815 40.4913 60.1515 37.4213 60.1515 33.6413C60.1515 29.8613 57.0815 26.7913 53.3015 26.7913ZM37.9315 30.7513C37.9315 30.8413 37.8615 30.9113 37.7615 30.9113H26.9615C26.8615 30.9113 26.7915 30.8413 26.7915 30.7513V24.3013C26.7915 24.2113 26.8615 24.1313 26.9615 24.1313H37.7615C37.8615 24.1313 37.9315 24.2113 37.9315 24.3013V30.7513Z" fill="black"/>
<path d="M37.9315 24.3013V30.7513C37.9315 30.8413 37.8615 30.9113 37.7615 30.9113H26.9615C26.8615 30.9113 26.7915 30.8413 26.7915 30.7513V24.3013C26.7915 24.2113 26.8615 24.1313 26.9615 24.1313H37.7615C37.8615 24.1313 37.9315 24.2113 37.9315 24.3013Z" fill="#85D69E"/>
<path d="M37.7615 34.9213H26.9615C26.0515 34.9213 25.3215 35.6513 25.3215 36.5513V39.0413H11.4215C7.64153 39.0413 4.57153 42.1113 4.57153 45.8913C4.57153 49.6613 7.64153 52.7413 11.4215 52.7413H19.8415L18.6015 54.0513C18.3215 54.3513 18.3315 54.8113 18.6315 55.0913C18.7715 55.2213 18.9515 55.2913 19.1315 55.2913C19.3315 55.2913 19.5215 55.2113 19.6715 55.0613L22.0715 52.5113C22.1015 52.4713 22.1215 52.4313 22.1415 52.3813C22.1715 52.3513 22.2015 52.3213 22.2115 52.2813C22.2815 52.1013 22.2815 51.9013 22.2115 51.7313C22.2015 51.6913 22.1715 51.6613 22.1415 51.6213C22.1215 51.5813 22.1015 51.5413 22.0715 51.5013L19.6715 48.9513C19.3915 48.6613 18.9215 48.6413 18.6315 48.9213C18.3315 49.2013 18.3215 49.6613 18.6015 49.9613L19.8415 51.2713H11.4215C8.45153 51.2713 6.04153 48.8613 6.04153 45.8913C6.04153 42.9213 8.45153 40.5113 11.4215 40.5113H25.3215V43.0013C25.3215 43.9013 26.0515 44.6313 26.9615 44.6313H37.7615C38.6715 44.6313 39.4015 43.9013 39.4015 43.0013V36.5513C39.4015 35.6513 38.6715 34.9213 37.7615 34.9213ZM37.9315 43.0013C37.9315 43.0913 37.8615 43.1613 37.7615 43.1613H26.9615C26.8615 43.1613 26.7915 43.0913 26.7915 43.0013V36.5513C26.7915 36.4613 26.8615 36.3813 26.9615 36.3813H37.7615C37.8615 36.3813 37.9315 36.4613 37.9315 36.5513V43.0013Z" fill="black"/>
<path d="M37.9315 36.5513V43.0013C37.9315 43.0913 37.8615 43.1613 37.7615 43.1613H26.9615C26.8615 43.1613 26.7915 43.0913 26.7915 43.0013V36.5513C26.7915 36.4613 26.8615 36.3813 26.9615 36.3813H37.7615C37.8615 36.3813 37.9315 36.4613 37.9315 36.5513Z" fill="#42C3FC"/>
<path d="M45.0915 51.7713C45.0815 51.7513 45.0815 51.7313 45.0715 51.7213C45.0415 51.6413 44.9915 51.5813 44.9415 51.5213L42.8215 49.2713C42.5415 48.9813 42.0815 48.9613 41.7815 49.2413C41.4915 49.5213 41.4715 49.9813 41.7515 50.2813L42.7115 51.2913H39.4015V48.8013C39.4015 47.9013 38.6715 47.1713 37.7615 47.1713H26.9615C26.0515 47.1713 25.3215 47.9013 25.3215 48.8013V55.2413C25.3215 56.1513 26.0515 56.8813 26.9615 56.8813H37.7615C38.6715 56.8813 39.4015 56.1513 39.4015 55.2413V52.7613H42.7115L41.7515 53.7713C41.4715 54.0613 41.4915 54.5313 41.7815 54.8013C41.9215 54.9413 42.1015 55.0013 42.2815 55.0013C42.4815 55.0013 42.6715 54.9313 42.8215 54.7713L44.9415 52.5313C44.9415 52.5213 44.9415 52.5213 44.9515 52.5113C45.0015 52.4513 45.0515 52.3913 45.0815 52.3113C45.0815 52.3113 45.0815 52.3013 45.0815 52.2913C45.0915 52.2713 45.1015 52.2513 45.1015 52.2313C45.1215 52.1713 45.1315 52.1013 45.1315 52.0413V51.9613C45.1215 51.9013 45.1115 51.8313 45.0915 51.7713ZM37.9315 55.2413C37.9315 55.3413 37.8615 55.4113 37.7615 55.4113H26.9615C26.8615 55.4113 26.7915 55.3413 26.7915 55.2413V48.8013C26.7915 48.7113 26.8615 48.6313 26.9615 48.6313H37.7615C37.8615 48.6313 37.9315 48.7113 37.9315 48.8013V55.2413Z" fill="black"/>
<path d="M37.9315 48.8013V55.2413C37.9315 55.3413 37.8615 55.4113 37.7615 55.4113H26.9615C26.8615 55.4113 26.7915 55.3413 26.7915 55.2413V48.8013C26.7915 48.7113 26.8615 48.6313 26.9615 48.6313H37.7615C37.8615 48.6313 37.9315 48.7113 37.9315 48.8013Z" fill="#85D69E"/>
</g>
<defs>
<clipPath id="clip0_2_2002">
<rect width="64" height="64" fill="white" transform="translate(0.52153 0.911255)"/>
</clipPath>
</defs>
</svg>
